<?xml version="1.0" encoding="UTF-8" standalone="no"?>
<!-- Created with Inkscape (http://www.inkscape.org/) -->

<svg
   xmlns:dc="http://purl.org/dc/elements/1.1/"
   xmlns:cc="http://creativecommons.org/ns#"
   xmlns:rdf="http://www.w3.org/1999/02/22-rdf-syntax-ns#"
   xmlns:svg="http://www.w3.org/2000/svg"
   xmlns="http://www.w3.org/2000/svg"
   xmlns:sodipodi="http://sodipodi.sourceforge.net/DTD/sodipodi-0.dtd"
   xmlns:inkscape="http://www.inkscape.org/namespaces/inkscape"
   width="97.169708mm"
   height="93.946976mm"
   viewBox="0 0 97.169708 93.946976"
   version="1.1"
   id="svg1126"
   inkscape:version="0.92.3 (2405546, 2018-03-11)"
   sodipodi:docname="github_homepage_brain.svg">
  <defs
     id="defs1120">
    <marker
       inkscape:stockid="DotM"
       orient="auto"
       refY="0"
       refX="0"
       id="marker6416"
       style="overflow:visible"
       inkscape:isstock="true"
       inkscape:collect="always">
      <path
         inkscape:connector-curvature="0"
         id="path1312"
         d="m -2.5,-1 c 0,2.76 -2.24,5 -5,5 -2.76,0 -5,-2.24 -5,-5 0,-2.76 2.24,-5 5,-5 2.76,0 5,2.24 5,5 z"
         style="fill:#6e7681;fill-opacity:1;fill-rule:evenodd;stroke:#6e7681;stroke-width:1.00000003pt;stroke-opacity:1"
         transform="matrix(0.4,0,0,0.4,2.96,0.4)" />
    </marker>
    <marker
       inkscape:stockid="DotM"
       orient="auto"
       refY="0"
       refX="0"
       id="marker9318"
       style="overflow:visible"
       inkscape:isstock="true"
       inkscape:collect="always">
      <path
         inkscape:connector-curvature="0"
         id="path9316"
         d="m -2.5,-1 c 0,2.76 -2.24,5 -5,5 -2.76,0 -5,-2.24 -5,-5 0,-2.76 2.24,-5 5,-5 2.76,0 5,2.24 5,5 z"
         style="fill:#6e7681;fill-opacity:1;fill-rule:evenodd;stroke:#6e7681;stroke-width:1.00000003pt;stroke-opacity:1"
         transform="matrix(0.4,0,0,0.4,2.96,0.4)" />
    </marker>
    <marker
       inkscape:stockid="DotM"
       orient="auto"
       refY="0"
       refX="0"
       id="marker9494"
       style="overflow:visible"
       inkscape:isstock="true"
       inkscape:collect="always">
      <path
         inkscape:connector-curvature="0"
         id="path9492"
         d="m -2.5,-1 c 0,2.76 -2.24,5 -5,5 -2.76,0 -5,-2.24 -5,-5 0,-2.76 2.24,-5 5,-5 2.76,0 5,2.24 5,5 z"
         style="fill:#6e7681;fill-opacity:1;fill-rule:evenodd;stroke:#6e7681;stroke-width:1.00000003pt;stroke-opacity:1"
         transform="matrix(0.4,0,0,0.4,2.96,0.4)" />
    </marker>
    <marker
       inkscape:stockid="DotM"
       orient="auto"
       refY="0"
       refX="0"
       id="marker8622"
       style="overflow:visible"
       inkscape:isstock="true"
       inkscape:collect="always">
      <path
         inkscape:connector-curvature="0"
         id="path8620"
         d="m -2.5,-1 c 0,2.76 -2.24,5 -5,5 -2.76,0 -5,-2.24 -5,-5 0,-2.76 2.24,-5 5,-5 2.76,0 5,2.24 5,5 z"
         style="fill:#6e7681;fill-opacity:1;fill-rule:evenodd;stroke:#6e7681;stroke-width:1.00000003pt;stroke-opacity:1"
         transform="matrix(0.4,0,0,0.4,2.96,0.4)" />
    </marker>
    <marker
       inkscape:stockid="DotM"
       orient="auto"
       refY="0"
       refX="0"
       id="marker8958"
       style="overflow:visible"
       inkscape:isstock="true"
       inkscape:collect="always">
      <path
         inkscape:connector-curvature="0"
         id="path8956"
         d="m -2.5,-1 c 0,2.76 -2.24,5 -5,5 -2.76,0 -5,-2.24 -5,-5 0,-2.76 2.24,-5 5,-5 2.76,0 5,2.24 5,5 z"
         style="fill:#6e7681;fill-opacity:1;fill-rule:evenodd;stroke:#6e7681;stroke-width:1.00000003pt;stroke-opacity:1"
         transform="matrix(0.4,0,0,0.4,2.96,0.4)" />
    </marker>
    <marker
       inkscape:stockid="DotM"
       orient="auto"
       refY="0"
       refX="0"
       id="DotM"
       style="overflow:visible"
       inkscape:isstock="true"
       inkscape:collect="always">
      <path
         inkscape:connector-curvature="0"
         id="path9830"
         d="m -2.5,-1 c 0,2.76 -2.24,5 -5,5 -2.76,0 -5,-2.24 -5,-5 0,-2.76 2.24,-5 5,-5 2.76,0 5,2.24 5,5 z"
         style="fill:#6e7681;fill-opacity:1;fill-rule:evenodd;stroke:#6e7681;stroke-width:1.00000003pt;stroke-opacity:1"
         transform="matrix(0.4,0,0,0.4,2.96,0.4)" />
    </marker>
    <marker
       inkscape:isstock="true"
       style="overflow:visible"
       id="marker10379"
       refX="0"
       refY="0"
       orient="auto"
       inkscape:stockid="DotM"
       inkscape:collect="always">
      <path
         inkscape:connector-curvature="0"
         transform="matrix(0.4,0,0,0.4,2.96,0.4)"
         style="fill:#6e7681;fill-opacity:1;fill-rule:evenodd;stroke:#6e7681;stroke-width:1.00000003pt;stroke-opacity:1"
         d="m -2.5,-1 c 0,2.76 -2.24,5 -5,5 -2.76,0 -5,-2.24 -5,-5 0,-2.76 2.24,-5 5,-5 2.76,0 5,2.24 5,5 z"
         id="path10377" />
    </marker>
    <marker
       inkscape:isstock="true"
       style="overflow:visible"
       id="marker10721"
       refX="0"
       refY="0"
       orient="auto"
       inkscape:stockid="DotM"
       inkscape:collect="always">
      <path
         inkscape:connector-curvature="0"
         transform="matrix(0.4,0,0,0.4,2.96,0.4)"
         style="fill:#6e7681;fill-opacity:1;fill-rule:evenodd;stroke:#6e7681;stroke-width:1.00000003pt;stroke-opacity:1"
         d="m -2.5,-1 c 0,2.76 -2.24,5 -5,5 -2.76,0 -5,-2.24 -5,-5 0,-2.76 2.24,-5 5,-5 2.76,0 5,2.24 5,5 z"
         id="path10719" />
    </marker>
    <marker
       inkscape:isstock="true"
       style="overflow:visible"
       id="marker12725"
       refX="0"
       refY="0"
       orient="auto"
       inkscape:stockid="DotM"
       inkscape:collect="always">
      <path
         inkscape:connector-curvature="0"
         transform="matrix(0.4,0,0,0.4,2.96,0.4)"
         style="fill:#6e7681;fill-opacity:1;fill-rule:evenodd;stroke:#6e7681;stroke-width:1.00000003pt;stroke-opacity:1"
         d="m -2.5,-1 c 0,2.76 -2.24,5 -5,5 -2.76,0 -5,-2.24 -5,-5 0,-2.76 2.24,-5 5,-5 2.76,0 5,2.24 5,5 z"
         id="path12723" />
    </marker>
    <marker
       inkscape:isstock="true"
       style="overflow:visible"
       id="marker12903"
       refX="0"
       refY="0"
       orient="auto"
       inkscape:stockid="DotM"
       inkscape:collect="always">
      <path
         inkscape:connector-curvature="0"
         transform="matrix(0.4,0,0,0.4,2.96,0.4)"
         style="fill:#6e7681;fill-opacity:1;fill-rule:evenodd;stroke:#6e7681;stroke-width:1.00000003pt;stroke-opacity:1"
         d="m -2.5,-1 c 0,2.76 -2.24,5 -5,5 -2.76,0 -5,-2.24 -5,-5 0,-2.76 2.24,-5 5,-5 2.76,0 5,2.24 5,5 z"
         id="path12901" />
    </marker>
    <marker
       inkscape:isstock="true"
       style="overflow:visible"
       id="marker13245"
       refX="0"
       refY="0"
       orient="auto"
       inkscape:stockid="DotM"
       inkscape:collect="always">
      <path
         inkscape:connector-curvature="0"
         transform="matrix(0.4,0,0,0.4,2.96,0.4)"
         style="fill:#6e7681;fill-opacity:1;fill-rule:evenodd;stroke:#6e7681;stroke-width:1.00000003pt;stroke-opacity:1"
         d="m -2.5,-1 c 0,2.76 -2.24,5 -5,5 -2.76,0 -5,-2.24 -5,-5 0,-2.76 2.24,-5 5,-5 2.76,0 5,2.24 5,5 z"
         id="path13243" />
    </marker>
    <marker
       inkscape:isstock="true"
       style="overflow:visible"
       id="marker13921"
       refX="0"
       refY="0"
       orient="auto"
       inkscape:stockid="DotM"
       inkscape:collect="always">
      <path
         inkscape:connector-curvature="0"
         transform="matrix(0.4,0,0,0.4,2.96,0.4)"
         style="fill:#6e7681;fill-opacity:1;fill-rule:evenodd;stroke:#6e7681;stroke-width:1.00000003pt;stroke-opacity:1"
         d="m -2.5,-1 c 0,2.76 -2.24,5 -5,5 -2.76,0 -5,-2.24 -5,-5 0,-2.76 2.24,-5 5,-5 2.76,0 5,2.24 5,5 z"
         id="path13919" />
    </marker>
    <marker
       inkscape:isstock="true"
       style="overflow:visible"
       id="marker14263"
       refX="0"
       refY="0"
       orient="auto"
       inkscape:stockid="DotM"
       inkscape:collect="always">
      <path
         inkscape:connector-curvature="0"
         transform="matrix(0.4,0,0,0.4,2.96,0.4)"
         style="fill:#6e7681;fill-opacity:1;fill-rule:evenodd;stroke:#6e7681;stroke-width:1.00000003pt;stroke-opacity:1"
         d="m -2.5,-1 c 0,2.76 -2.24,5 -5,5 -2.76,0 -5,-2.24 -5,-5 0,-2.76 2.24,-5 5,-5 2.76,0 5,2.24 5,5 z"
         id="path14261" />
    </marker>
    <marker
       inkscape:isstock="true"
       style="overflow:visible"
       id="marker14607"
       refX="0"
       refY="0"
       orient="auto"
       inkscape:stockid="DotM"
       inkscape:collect="always">
      <path
         inkscape:connector-curvature="0"
         transform="matrix(0.4,0,0,0.4,2.96,0.4)"
         style="fill:#6e7681;fill-opacity:1;fill-rule:evenodd;stroke:#6e7681;stroke-width:1.00000003pt;stroke-opacity:1"
         d="m -2.5,-1 c 0,2.76 -2.24,5 -5,5 -2.76,0 -5,-2.24 -5,-5 0,-2.76 2.24,-5 5,-5 2.76,0 5,2.24 5,5 z"
         id="path14605" />
    </marker>
  </defs>
  <sodipodi:namedview
     id="base"
     pagecolor="#ffffff"
     bordercolor="#666666"
     borderopacity="1.0"
     inkscape:pageopacity="0.0"
     inkscape:pageshadow="2"
     inkscape:zoom="0.58048338"
     inkscape:cx="142.79817"
     inkscape:cy="276.65571"
     inkscape:document-units="mm"
     inkscape:current-layer="layer1"
     showgrid="false"
     fit-margin-top="0"
     fit-margin-left="0"
     fit-margin-right="0"
     fit-margin-bottom="0"
     inkscape:window-width="1718"
     inkscape:window-height="1378"
     inkscape:window-x="4273"
     inkscape:window-y="0"
     inkscape:window-maximized="0" />
  <metadata
     id="metadata1123">
    <rdf:RDF>
      <cc:Work
         rdf:about="">
        <dc:format>image/svg+xml</dc:format>
        <dc:type
           rdf:resource="http://purl.org/dc/dcmitype/StillImage" />
        <dc:title></dc:title>
      </cc:Work>
    </rdf:RDF>
  </metadata>
  <g
     inkscape:label="Layer 1"
     inkscape:groupmode="layer"
     id="layer1"
     transform="translate(-32.795412,-112.56639)">
    <g
       id="g8456"
       transform="matrix(0,-0.56456636,0.56471079,0,-149.17243,239.56627)"
       style="opacity:1;fill:none;stroke-width:1.77104437;stroke-miterlimit:4;stroke-dasharray:none"
       inkscape:export-filename="D:\github_banner_slideshow\empty.png"
       inkscape:export-xdpi="96"
       inkscape:export-ydpi="96">
      <path
         inkscape:connector-curvature="0"
         id="path5383"
         style="fill:none;stroke:#6e7681;stroke-width:1.77104437;stroke-linecap:round;stroke-linejoin:miter;stroke-miterlimit:4;stroke-dasharray:none;stroke-opacity:1"
         d="m 121.42948,363.79947 c -6.19921,-0.57275 -8.35546,4.6831 -8.35546,5.66015 m -4.64941,40.36227 c -2.76269,-1.14551 -8.96689,-6.00368 -9.29882,-11.65721 -0.26553,-10.20177 14.56356,-15.51661 13.94823,-28.43553 0.0338,-5.28918 -12.8701,-14.28515 -19.06932,0 m -8.01855,37.59958 c 0,0 3.30175,5.12109 3.30175,6.73828 m -12.06152,3.63867 c 5.05371,-4.44726 10.23735,-4.33932 12.06152,-3.63867 12.33105,5.66015 18.91915,10.1749 27.49217,2.02148 8.69272,-10.34001 -2.62793,-18.93456 -3.84082,-19.74315 m 3.50391,67.04586 c -5.92968,-1.68457 -3.70605,-9.63574 -3.70605,-9.63574 m -1.54981,-23.92088 c 23.8535,10.5791 5.39063,30.86131 -11.05077,22.50585 m 10.98339,-102.01751 c -4.44726,-3.16699 -4.0276,-12.6809 -4.0276,-12.6809 m -18.34348,45.90061 c -4.3125,-4.91894 -10.82793,-4.26408 -10.82793,-4.26408 m 26.99979,61.94372 c -22.64061,-4.37988 -24.14099,17.34057 -24.14099,17.34057 m 52.03032,17.15285 0.0674,-142.92689 c 0.4043,-7.8501 -11.91332,-9.92327 -16.09784,-7.82762 -3.53638,1.23817 -9.00068,5.55305 -9.68725,12.68083 -4.98633,-1.34766 -9.34035,-2.76387 -15.44913,1.42262 -4.0653,3.35167 -6.05652,9.74471 -4.5741,14.8658 -5.18848,1.28027 -9.10353,2.81332 -11.62582,8.19526 -2.49554,6.99497 0.38877,14.92923 2.47764,17.15286 -4.17773,0.26953 -9.47215,2.53813 -12.38818,8.57641 -2.90528,6.35795 -0.74713,15.69917 3.22842,19.20308 -4.58203,1.07812 -9.46295,5.9868 -9.32721,13.19676 0.44068,9.29228 6.65897,12.09049 10.10112,13.15052 -4.24512,4.11035 -5.70981,12.90546 -1.92701,18.10579 4.32899,6.30114 10.81326,6.71482 13.17166,7.05173 0.80859,5.99707 2.26791,11.25585 7.0633,14.67323 6.24263,4.11258 12.77038,2.53852 14.85424,1.90786 1.81933,5.66015 9.01042,10.30362 15.54722,10.28015 9.90722,-0.42886 14.63295,-7.75429 14.56556,-9.70839 z" />
      <path
         sodipodi:nodetypes="sccsccccccccccccccccccccccccccccccccccccccccccccccccccccccccccccccccccccccccccc"
         inkscape:connector-curvature="0"
         d="m 151.70634,408.26685 c 0,7.45272 -6.04121,13.49446 -13.4935,13.49446 v -26.9888 c 7.45229,0 13.4935,6.04162 13.4935,13.49434 z m 54.87029,-7.00959 3.90726,-0.40063 4.74718,0.6716 8.83461,3.81119 v 5.85486 l -8.83461,3.81119 -4.74718,0.6716 -3.90726,-0.40063 -1.72556,9.78667 3.80863,0.95996 4.23121,2.25486 6.99839,6.60311 -2.00239,5.50176 -9.60522,0.5596 -4.69056,-0.99266 -3.53467,-1.71291 -4.96851,8.60627 3.25065,2.20477 3.20485,3.56613 4.31807,8.59857 -3.76325,4.48513 -9.21731,-2.75957 -4.06822,-2.53711 -2.73566,-2.81859 -7.61227,6.38778 2.30059,3.18371 1.79201,4.44719 1.11689,9.557 -5.07021,2.92743 -7.71763,-5.74581 -2.95521,-3.77559 -1.60673,-3.58434 -9.33778,3.39889 1.07298,3.77855 0.16299,4.79197 -2.21893,9.36268 -5.76563,1.01668 -5.28715,-8.03907 -1.48572,-4.55868 -0.28444,-3.91751 h -4.968 v -137.093 h 4.968 l 0.28444,-3.91743 1.48572,-4.55868 5.28715,-8.03907 5.76563,1.01668 2.21893,9.36268 -0.16299,4.79197 -1.07298,3.77855 9.33778,3.39889 1.60674,-3.58434 2.9552,-3.77559 7.71763,-5.74581 5.07021,2.92743 -1.11689,9.557 -1.79201,4.44719 -2.30059,3.18371 7.61227,6.38778 2.73566,-2.81859 4.06822,-2.53711 9.21731,-2.75957 3.76325,4.48513 -4.31807,8.59857 -3.20485,3.56613 -3.25065,2.20477 4.96851,8.60627 3.53467,-1.71291 4.69056,-0.99266 9.60522,0.5596 2.00239,5.50176 -6.99839,6.60311 -4.23121,2.25486 -3.80863,0.95996 z"
         style="fill:none;fill-opacity:1;stroke:#6e7681;stroke-width:1.77104437;stroke-linecap:butt;stroke-linejoin:miter;stroke-miterlimit:4;stroke-dasharray:none;stroke-opacity:1"
         id="path6241" />
      <path
         inkscape:connector-curvature="0"
         id="path6244"
         d="m 151.77347,344.68695 -0.19059,21.25049 -13.24582,13.24581"
         style="fill:none;stroke:#6e7681;stroke-width:1.77104437;stroke-linecap:butt;stroke-linejoin:miter;stroke-miterlimit:4;stroke-dasharray:none;stroke-opacity:1;marker-start:url(#marker6416)" />
      <path
         inkscape:connector-curvature="0"
         id="path6584"
         d="m 172.1663,352.50102 v 10.95878 l -10.57759,10.76817"
         style="fill:none;stroke:#6e7681;stroke-width:1.77104437;stroke-linecap:round;stroke-linejoin:round;stroke-miterlimit:4;stroke-dasharray:none;stroke-opacity:1;marker-start:url(#marker9318);marker-end:url(#marker9494);paint-order:normal" />
      <path
         inkscape:connector-curvature="0"
         id="path6784"
         d="m 152.35818,388.3268 13.47655,0.13475 17.18261,-17.38477"
         style="fill:none;stroke:#6e7681;stroke-width:1.77104437;stroke-linecap:butt;stroke-linejoin:miter;stroke-miterlimit:4;stroke-dasharray:none;stroke-opacity:1;marker-start:url(#marker8622);marker-end:url(#marker8958)" />
      <path
         inkscape:connector-curvature="0"
         id="path9828"
         d="m 146.8182,398.14667 39.73744,0.0953 8.09996,-8.09995"
         style="fill:none;stroke:#6e7681;stroke-width:1.77104437;stroke-linecap:butt;stroke-linejoin:miter;stroke-miterlimit:4;stroke-dasharray:none;stroke-opacity:1;marker-end:url(#DotM)" />
      <path
         inkscape:connector-curvature="0"
         id="path10369"
         d="m 158.15814,406.63791 h 21.91754"
         style="fill:none;stroke:#6e7681;stroke-width:1.77104437;stroke-linecap:butt;stroke-linejoin:miter;stroke-miterlimit:4;stroke-dasharray:none;stroke-opacity:1;marker-start:url(#marker10379);marker-end:url(#marker10721)" />
      <path
         sodipodi:nodetypes="ccc"
         inkscape:connector-curvature="0"
         id="path12715"
         d="m 149.67701,415.77599 h 38.49862 l 6.86114,6.57526"
         style="fill:none;stroke:#6e7681;stroke-width:1.77104437;stroke-linecap:butt;stroke-linejoin:miter;stroke-miterlimit:4;stroke-dasharray:none;stroke-opacity:1;marker-end:url(#marker12725)" />
      <path
         inkscape:connector-curvature="0"
         id="path12893"
         d="m 166.2581,425.40065 14.48463,-0.19059 11.53053,11.14936"
         style="fill:none;stroke:#6e7681;stroke-width:1.77104437;stroke-linecap:butt;stroke-linejoin:miter;stroke-miterlimit:4;stroke-dasharray:none;stroke-opacity:1;marker-start:url(#marker12903);marker-end:url(#marker13245)" />
      <path
         inkscape:connector-curvature="0"
         id="path13911"
         d="M 151.96405,426.06771 V 436.55 l 21.15519,20.86931"
         style="fill:none;stroke:#6e7681;stroke-width:1.77104437;stroke-linecap:butt;stroke-linejoin:miter;stroke-miterlimit:4;stroke-dasharray:none;stroke-opacity:1;marker-start:url(#marker13921);marker-end:url(#marker14263)" />
      <path
         inkscape:connector-curvature="0"
         id="path14597"
         d="m 153.86993,468.37808 0.28588,-12.76935 -15.91404,-15.62816"
         style="fill:none;stroke:#6e7681;stroke-width:1.77104437;stroke-linecap:butt;stroke-linejoin:miter;stroke-miterlimit:4;stroke-dasharray:none;stroke-opacity:1;marker-start:url(#marker14607)" />
    </g>
  </g>
</svg>
